<?xml version="1.0" encoding="utf-8"?>
<!-- Generator: Adobe Illustrator 18.0.0, SVG Export Plug-In . SVG Version: 6.00 Build 0)  -->
<!DOCTYPE svg PUBLIC "-//W3C//DTD SVG 1.1//EN" "http://www.w3.org/Graphics/SVG/1.1/DTD/svg11.dtd">
<svg version="1.1" id="Layer_1" xmlns="http://www.w3.org/2000/svg" xmlns:xlink="http://www.w3.org/1999/xlink" x="0px" y="0px"
	 viewBox="0 0 30 30" enable-background="new 0 0 30 30" xml:space="preserve">
<g>
	<rect y="293" fill="#F2F2F2" width="91" height="91"/>
	<path fill="#939598" d="M52.5,340.3v-3.5H50v0.1c-0.1-0.5-0.3-0.9-0.5-1.3l0,0l1.7-1.7l-2.5-2.5l-1.7,1.7c-0.4-0.2-0.8-0.4-1.2-0.5
		v-2.5h-3.5v2.4c-0.4,0.1-0.9,0.3-1.3,0.5l-1.7-1.7l-2.5,2.5l1.7,1.7c-0.2,0.4-0.4,0.8-0.5,1.2h-2.5v3.5h2.4
		c0.1,0.4,0.3,0.8,0.5,1.2l-1.7,1.7l2.5,2.5l1.7-1.7c0.4,0.2,0.8,0.4,1.2,0.5v2.4h3.5v-2.4c0.4-0.1,0.8-0.3,1.2-0.5l1.7,1.7l2.5-2.5
		l-1.7-1.7c0.2-0.4,0.4-0.8,0.5-1.3v0.1H52.5z M44.7,341.7c-1.7,0.4-3.5-0.8-3.8-2.5c-0.4-1.7,0.8-3.5,2.5-3.8
		c1.7-0.4,3.5,0.8,3.8,2.5c0.1,0.4,0.1,0.9,0,1.3C46.9,340.4,45.9,341.4,44.7,341.7z"/>
</g>
<path fill="#939598" d="M23.4,16.8v-3.5H21v0.1c-0.1-0.5-0.3-0.9-0.5-1.3l0,0l1.7-1.7l-2.5-2.5L18,9.6c-0.4-0.2-0.8-0.4-1.2-0.5V6.6
	h-3.5V9c-0.4,0.1-0.9,0.3-1.3,0.5l-1.7-1.7l-2.5,2.5L9.5,12c-0.2,0.4-0.4,0.8-0.5,1.2H6.6v3.5H9c0.1,0.4,0.3,0.8,0.5,1.2l-1.7,1.7
	l2.5,2.5l1.7-1.7c0.4,0.2,0.8,0.4,1.2,0.5v2.4h3.5V21c0.4-0.1,0.8-0.3,1.2-0.5l1.7,1.7l2.5-2.5L20.4,18c0.2-0.4,0.4-0.8,0.5-1.3v0.1
	H23.4z M15.6,18.2c-1.7,0.4-3.5-0.8-3.8-2.5c-0.4-1.7,0.8-3.5,2.5-3.8s3.5,0.8,3.8,2.5c0.1,0.4,0.1,0.9,0,1.3
	C17.9,16.9,16.9,17.9,15.6,18.2z"/>
</svg>
