<?xml version="1.0" encoding="utf-8"?>
<!-- Generator: Adobe Illustrator 18.0.0, SVG Export Plug-In . SVG Version: 6.00 Build 0)  -->
<!DOCTYPE svg PUBLIC "-//W3C//DTD SVG 1.1//EN" "http://www.w3.org/Graphics/SVG/1.1/DTD/svg11.dtd">
<svg version="1.1" id="Layer_1" xmlns="http://www.w3.org/2000/svg" xmlns:xlink="http://www.w3.org/1999/xlink" x="0px" y="0px"
	 viewBox="0 0 30 30" enable-background="new 0 0 30 30" xml:space="preserve">
<g>
	<path fill="#939598" d="M18.4,9.2c-0.1,0-0.3,0-0.4,0c-0.1,0.1-0.2,0.2-0.2,0.3v2.7c0,0.1,0,0.2,0.2,0.3c1.2,0.9,1.8,2.3,1.8,3.8
		c0,2.6-2.1,4.8-4.8,4.8s-4.8-2.1-4.8-4.8c0-1.5,0.7-2.9,1.9-3.8c0.1-0.1,0.2-0.2,0.2-0.3V9.5c0-0.2-0.2-0.4-0.4-0.4h-0.1
		c0,0-0.1,0-0.2,0c-2.7,1.3-4.5,4.1-4.5,7.1c0,4.3,3.5,7.9,7.9,7.9c4.3,0,7.9-3.5,7.9-7.9C22.9,13.2,21.1,10.4,18.4,9.2z"/>
	<path fill="#939598" d="M16.1,5.9h-2.3c-0.2,0-0.4,0.2-0.4,0.4v10c0,0.2,0.2,0.4,0.4,0.4h2.3c0.2,0,0.4-0.2,0.4-0.4v-10
		C16.5,6.1,16.4,5.9,16.1,5.9z"/>
</g>
</svg>
